# xmcd
#
# Track frame offsets:
#  150
#  19110
#  34462
#  48635
#  64037
#  77867
#  92935
#  107792
#  119085
#  134492
#  150100
#  162477
#  175660
#  187952
#  200705
#  218005
#  241590
#  257442
#  271202
#
# Disc length: 3663 seconds
#
# Revision: 0
# Processed by: cddbd v1.5.2PL0 Copyright (c) Steve Scherf et al.
# Submitted via: Collectorz.com_Music_Collector 6.11
#
DISCID=090e4d13
DTITLE=Various Artist - NfS Country Singles Volume 15
DYEAR=1900
DGENRE=Country
TTITLE0=Stan Coster - Lawson's Loaded Dog
TTITLE1=Rosemary Rae - Making Love To merle
TTITLE2=Fry Brothers - Yipp Yi Yay Cowboys
TTITLE3=P.W. Billy - Long Time Man
TTITLE4=Ernie Constance - I Wish I Could Go Back
TTITLE5=Kathryn Pitt - Blue
TTITLE6=Coad Sisters - Wild, Weird and Wonderful
TTITLE7=Paul Gibbs - My heart has Found A Home
TTITLE8=Alison Krauss/The Cox Family - The Palm Of Your Hand
TTITLE9=Kathy Mattea - Walking Away A Winner
TTITLE10=Faith Hill - Wild One
TTITLE11=Ralph Stanley/Dwight yoakam - Down Where The River Bends
TTITLE12=Daniel O'Donnell - Singing The Blues
TTITLE13=Dominic Kirwan - Straight and Narrow
TTITLE14=Charley pride - Just For The Love Of It
TTITLE15=Conway Twitty/Sam Moore - Rainy Night In georgia
TTITLE16=George Strait - I Cross My Heart
TTITLE17=Marty Stuart - Kiss Me, I'm Gone
TTITLE18=Trisha Yearwood - Open End Interview Tracks
EXTD=
EXTT0=
EXTT1=
EXTT2=
EXTT3=
EXTT4=
EXTT5=
EXTT6=
EXTT7=
EXTT8=
EXTT9=
EXTT10=
EXTT11=
EXTT12=
EXTT13=
EXTT14=
EXTT15=
EXTT16=
EXTT17=
EXTT18=
PLAYORDER=
